<svg xmlns="http://www.w3.org/2000/svg" viewBox="0 0 1080 1080"><defs><style>.a{fill:#e9e7e4;}.b{fill:#5f6161;}</style></defs><circle class="a" cx="540" cy="540" r="500"></circle><path class="b" d="M764.48,322.9a10.38,10.38,0,0,0-7.37-7.39c-12.76-3.39-79.57-19.34-140.22.43-2.73.83-67.7,21.55-141.93,105.73-.6.76-4.35,5.5-9.92,12.72-14.24-.56-78.23-2-104.28,16.67-28.54,20.5-53.16,84.59-54.19,87.3a5.3,5.3,0,0,0,8.06,6.19c.43-.31,43.06-30.46,83.25.45l21.92,21.91c-2,14.65-8.86,47.58-21.94,59.24l-4.19,3.74,56.44,56.45,3.74-4.2c11.64-13.06,44.59-19.93,59.23-21.94L535,682.12c30.77,40,1.69,81.5.44,83.25a5.31,5.31,0,0,0,4.32,8.41,5.26,5.26,0,0,0,1.88-.34c2.73-1,66.8-25.65,87.3-54.2,18.7-26,17.25-90.08,16.67-104.29,7.3-5.63,12.11-9.45,12.94-10.1,84-74,104.67-139,105.49-141.66C783.85,402.45,767.88,335.66,764.48,322.9ZM322.19,528.45c8.74-19.8,26.31-55.5,44.77-68.75,20-14.36,68.93-15.22,90.14-14.88-18.79,24.89-47.06,64-58.09,88C369.21,513.3,339.12,521,322.19,528.45ZM450,671.18,408.82,630c11.75-14.18,17.68-39.52,20.23-53.85L503.82,651C489.49,653.5,464.16,659.42,450,671.18ZM620.3,713c-13.24,18.44-48.95,36-68.76,44.75,7.43-16.91,15.16-47-4.32-76.8,23.95-11,63-39.26,88-58.11C635.52,644.1,634.64,693,620.3,713ZM753.9,460c-.2.65-20.88,65-102.17,136.73-.81.63-77.49,61.44-111.4,75.75L407.56,539.65c14.3-33.89,75.09-110.57,75.56-111.16C555,347,619.39,326.29,620.11,326.06c59.13-19.28,126.76-2.28,134.09-.45C756.21,333.13,773.21,400.78,753.9,460Z"></path><path class="b" d="M438.55,450.74l-16.32,5.46c-3.29,1.09-1.88,6.33,1.45,5.22L440,456C443.29,454.88,441.88,449.64,438.55,450.74Z"></path><path class="b" d="M430.4,463.28a186.33,186.33,0,0,0-18.49,5.43c-3.27,1.15-1.86,6.39,1.44,5.24a182.22,182.22,0,0,1,18.49-5.44C435.23,467.7,433.79,462.48,430.4,463.28Z"></path><path class="b" d="M417.87,481.14,406,485.61c-3.24,1.21-1.84,6.46,1.44,5.23l11.92-4.47C422.55,485.16,421.14,479.91,417.87,481.14Z"></path><path class="b" d="M409,495.58a76.26,76.26,0,0,0-17.39,8.58c-2.89,1.92-.18,6.62,2.73,4.68a71.63,71.63,0,0,1,16.12-8C413.72,499.66,412.31,494.43,409,495.58Z"></path><path class="b" d="M401,512.21,394,514.92c-3.22,1.24-1.83,6.48,1.44,5.24,2.35-.92,4.71-1.82,7.07-2.73C405.69,516.19,404.3,510.94,401,512.21Z"></path><path class="b" d="M624,640q-2.71,8.15-5.44,16.31c-1.11,3.32,4.13,4.74,5.22,1.45q2.73-8.16,5.44-16.32C630.35,638.13,625.12,636.7,624,640Z"></path><path class="b" d="M611.48,648.16a181.86,181.86,0,0,1-5.43,18.49c-1.15,3.3,4.09,4.72,5.23,1.43a182.16,182.16,0,0,0,5.43-18.49C617.51,646.21,612.28,644.75,611.48,648.16Z"></path><path class="b" d="M600,661.72a123.22,123.22,0,0,1-9.27,21.22c-1.7,3,3,5.79,4.67,2.74a131.24,131.24,0,0,0,9.84-22.51C606.3,659.84,601.08,658.42,600,661.72Z"></path><path class="b" d="M588.69,665.57q-2.22,6-4.47,11.93c-1.23,3.27,4,4.69,5.23,1.43,1.49-4,3-7.94,4.47-11.92C595.15,663.75,589.9,662.33,588.69,665.57Z"></path><path class="b" d="M575,673.71a72.37,72.37,0,0,1-8,16.11c-1.93,2.92,2.75,5.63,4.68,2.73a77.3,77.3,0,0,0,8.58-17.39C581.41,671.85,576.18,670.43,575,673.71Z"></path><path class="b" d="M562.57,677.53c-.92,2.36-1.81,4.72-2.73,7.07-1.25,3.25,4,4.67,5.23,1.44.91-2.36,1.82-4.71,2.72-7.07C569.05,675.72,563.8,674.31,562.57,677.53Z"></path><path class="b" d="M436.89,548c-2-2.8-6.74-.09-4.68,2.74a209.15,209.15,0,0,0,26,29.51c2.53,2.38,6.38-1.44,3.82-3.83A202.85,202.85,0,0,1,436.89,548Z"></path><path class="b" d="M451.58,560.81c1.88,2.92,6.58.2,4.67-2.74a197.08,197.08,0,0,0-17.76-23.43c-2.33-2.61-6.15,1.23-3.85,3.83A185.57,185.57,0,0,1,451.58,560.81Z"></path><path class="b" d="M452.58,544.48c2.32,2.61,6.16-1.23,3.84-3.83q-4.35-4.9-8.7-9.79c-2.32-2.63-6.16,1.23-3.84,3.83Q448.23,539.57,452.58,544.48Z"></path><path class="b" d="M449.29,515.12c-2.25-2.67-6.07,1.18-3.82,3.83Q454,529.09,461.55,540c2,2.86,6.67.15,4.68-2.74Q458.31,525.8,449.29,515.12Z"></path><path class="b" d="M460.92,525.28c2.21,2.7,6-1.15,3.83-3.83q-4.65-5.69-9.33-11.37c-2.21-2.68-6,1.17-3.82,3.83Q456.25,519.61,460.92,525.28Z"></path><path class="b" d="M668.11,340.37c1.83-2.46,3.68-4.91,5.52-7.37,2.09-2.79-2.61-5.51-4.68-2.74l-5.53,7.37C661.32,340.42,666,343.13,668.11,340.37Z"></path><path class="b" d="M680,344.56a135.08,135.08,0,0,1,8.72-11.46c2.26-2.65-1.56-6.5-3.83-3.85a146.09,146.09,0,0,0-9.56,12.58C673.38,344.73,678.08,347.45,680,344.56Z"></path><path class="b" d="M691.52,346.4c2.49-3,5-6.12,7.44-9.17,2.17-2.69-1.64-6.55-3.83-3.83-2.48,3.05-5,6.1-7.43,9.17C685.52,345.26,689.32,349.11,691.52,346.4Z"></path><path class="b" d="M705.84,347.81l5.53-6.45c2.26-2.64-1.56-6.49-3.85-3.83-1.83,2.15-3.68,4.3-5.52,6.44C699.75,346.61,703.57,350.46,705.84,347.81Z"></path><path class="b" d="M633.66,595.06q-14.22-13.47-29.46-25.79c-2.69-2.17-6.56,1.64-3.84,3.83q15.25,12.31,29.47,25.79a.15.15,0,0,0,.08,0,2.68,2.68,0,0,0,2.3,4c2.68,0,3.29-3.2,1.83-4.68A2.36,2.36,0,0,0,633.66,595.06Z"></path><path class="b" d="M742.09,365q6.58,10.51,13.15,21c1.85,2.95,6.55.24,4.69-2.74q-6.6-10.51-13.16-21C744.93,359.27,740.23,362,742.09,365Z"></path><path class="b" d="M754.24,405.42c2.17,2.73,6-1.13,3.83-3.83q-8.6-10.75-17.18-21.53c-2.19-2.72-6,1.15-3.83,3.85Q745.63,394.67,754.24,405.42Z"></path><path class="b" d="M735.85,398c-2.4-2.55-6.22,1.3-3.84,3.83q12.3,13.1,23.89,26.83c2.25,2.67,6.06-1.19,3.83-3.83Q748.14,411.12,735.85,398Z"></path><path class="b" d="M731.23,414.61c-2.3-2.65-6.12,1.2-3.83,3.83l21.8,25.18c2.29,2.64,6.11-1.2,3.83-3.83Z"></path><path class="b" d="M716.92,421.54c-2.4-2.55-6.23,1.29-3.84,3.83q15,15.94,29.41,32.35c2.3,2.62,6.13-1.22,3.82-3.84Q731.9,437.46,716.92,421.54Z"></path><path class="b" d="M717.87,441.78c-2.46-2.48-6.29,1.35-3.83,3.83q12.9,13,24.69,26.92c2.26,2.66,6.08-1.18,3.84-3.84Q730.78,454.74,717.87,441.78Z"></path><path class="b" d="M699.47,443.6c-2.52-2.4-6.37,1.43-3.83,3.83q21,20,40.12,41.85c2.31,2.63,6.13-1.22,3.84-3.84Q720.51,463.62,699.47,443.6Z"></path><path class="b" d="M692.16,458.28c-2.5-2.44-6.34,1.4-3.83,3.83A497.1,497.1,0,0,1,727,504.49c2.21,2.72,6-1.14,3.85-3.83A499,499,0,0,0,692.16,458.28Z"></path><path class="b" d="M690.7,481.83c-2.5-2.42-6.34,1.41-3.83,3.84a252.16,252.16,0,0,1,27.48,31.47c2,2.79,6.74.08,4.68-2.74A260.29,260.29,0,0,0,690.7,481.83Z"></path><path class="b" d="M685.6,498c-2.47-2.46-6.3,1.37-3.83,3.83Q695,514.94,707,529.11c2.26,2.67,6.08-1.19,3.83-3.83Q698.77,511.12,685.6,498Z"></path><path class="b" d="M667.35,502.42c-2.52-2.41-6.35,1.42-3.84,3.83a279.52,279.52,0,0,1,29.87,33.63c2.09,2.75,6.78,0,4.68-2.74A287.55,287.55,0,0,0,667.35,502.42Z"></path><path class="b" d="M652.45,515.49c-2.53-2.38-6.39,1.45-3.81,3.83a484.56,484.56,0,0,1,34.92,36c2.31,2.63,6.13-1.22,3.84-3.84A484.76,484.76,0,0,0,652.45,515.49Z"></path><path class="b" d="M644.74,531.49c-2.51-2.43-6.35,1.41-3.84,3.83l25.79,24.87c2.51,2.43,6.35-1.42,3.84-3.84Z"></path><path class="b" d="M626.08,540c-2.82-2.07-5.53,2.64-2.74,4.69a191.66,191.66,0,0,1,34,32.24c2.23,2.69,6.06-1.15,3.85-3.83A198.08,198.08,0,0,0,626.08,540Z"></path><path class="b" d="M611.58,550.83c-2.69-2.18-6.54,1.64-3.83,3.83A373.83,373.83,0,0,1,645,589.26c2.39,2.55,6.22-1.3,3.83-3.83A372.65,372.65,0,0,0,611.58,550.83Z"></path><path class="b" d="M593,581.33c-2.76-2.12-5.47,2.59-2.73,4.69q12,9.21,23.94,18.41c2.76,2.12,5.48-2.57,2.74-4.67Q605,590.55,593,581.33Z"></path><path class="b" d="M579.22,592.36c-2.89-2-5.6,2.74-2.73,4.69l23,15.66c2.89,2,5.6-2.74,2.74-4.69Q590.73,600.19,579.22,592.36Z"></path><path class="b" d="M570,605.22c-2.76-2.11-5.48,2.59-2.74,4.69l15.66,12c2.77,2.12,5.47-2.59,2.73-4.69Q577.87,611.22,570,605.22Z"></path><path class="b" d="M574.63,627.33l-21.18-13.8c-2.94-1.93-5.66,2.77-2.74,4.67L571.89,632C574.83,633.94,577.54,629.24,574.63,627.33Z"></path><path class="b" d="M530.52,616.09c-3.06-1.66-5.8,3-2.72,4.67a152.22,152.22,0,0,1,34.91,25.91c2.47,2.47,6.31-1.36,3.83-3.83A156.2,156.2,0,0,0,530.52,616.09Z"></path><path class="b" d="M515.66,624.59c-2.89-2-5.6,2.73-2.72,4.69a155.29,155.29,0,0,1,34.68,32.53c2.16,2.75,6-1.12,3.83-3.83A159.72,159.72,0,0,0,515.66,624.59Z"></path><path class="b" d="M657.93,477.1c15.05-19.27,12.34-51-5.49-67.58-19-17.61-46.69-14.46-64,3.39-4.87,5,2.79,12.68,7.67,7.66,37-38,84.82,24.48,48.07,55-28.19,23.4-64.54-6.09-53.56-38.85,2.23-6.63-8.24-9.47-10.45-2.88C564.23,481.24,626.18,517.76,657.93,477.1Z"></path></svg>