<svg xmlns="http://www.w3.org/2000/svg" viewBox="0 0 1080 1080"><defs><style>.a{fill:#e9e7e4;}.b{fill:#5e6060;}</style></defs><circle class="a" cx="540" cy="539.24" r="510"></circle><path class="b" d="M573.85,804.41h0l0,0Z"></path><path class="b" d="M582.6,800.65h-.09a.3.3,0,0,0,.16,0l-.07,0"></path><path class="b" d="M649.71,758.84h0"></path><path class="b" d="M649.45,758.86h0l-.28,0a1.65,1.65,0,0,0,.31,0Z"></path><path class="b" d="M659.64,695.67a3.45,3.45,0,0,1-.14.34,2.12,2.12,0,0,0,.21,1.69,2.37,2.37,0,0,0,1.31,1,2.25,2.25,0,0,0,1.69-.23,2.43,2.43,0,0,0,1-1.3c1-2.45,2-4.9,2.9-7.4s1.72-5,2.52-7.44c1.46-4.5,2.83-9,4.07-13.57.64-2.27,1.27-4.55,1.83-6.84.57-2.46,1.14-4.9,1.64-7.37,1-4.92,1.92-9.89,2.74-14.85,0-.11,0-.24.05-.37a2.32,2.32,0,0,0-.21-1.69,2.25,2.25,0,0,0-1.31-1,1.72,1.72,0,0,0-.59-.08,2.17,2.17,0,0,0-1.1.3,2.13,2.13,0,0,0-1,1.32c-.82,5-1.73,10-2.73,15-.52,2.48-1.08,4.93-1.67,7.38-.54,2.29-1.16,4.57-1.8,6.85Q667.19,674.23,665,681c-.8,2.5-1.65,5-2.52,7.47s-1.82,4.84-2.83,7.22"></path><path class="b" d="M602.07,405.55h0"></path><path class="b" d="M606.38,453.24h0a.24.24,0,0,0-.13.05.21.21,0,0,1,.13-.05"></path><path class="b" d="M522.65,316s0,.1-.07.15l.48-1.14c-.14.33-.28.65-.41,1"></path><path class="b" d="M443.12,784.16l.42.33a.15.15,0,0,1,.07,0c-.17-.13-.34-.24-.49-.38"></path><path class="b" d="M404.32,742.75l0,0c.24.34.49.66.74,1Z"></path><path class="b" d="M715.3,602.64a74.48,74.48,0,0,0-.93-8.39c-.37-2.14-.86-4.28-1.33-6.39-1-4.64-1.74-9.34-2.86-14-.52-2.2-1.21-4.31-1.83-6.48s-1.2-4.3-1.81-6.44c-1.16-4.21-2.63-8.36-4.15-12.45a85.3,85.3,0,0,0-4.29-9.45c-1-1.83-2.05-3.63-3-5.47-.77-1.48-1.38-3-2-4.58-1.41-3.4-2.8-6.86-4.48-10.13-1.78-3.47-3.81-6.78-5.32-10.37.07.16.13.32.19.47-1-2.25-2-4.49-2.93-6.74a57.53,57.53,0,0,0-2.93-6.33c-1.14-2.05-2.46-4-3.75-6a121.18,121.18,0,0,1-7.44-12.13c-1-2-2-3.92-3.16-5.8-1.25-2.09-2.62-4.14-3.86-6.24-1-1.75-1.91-3.58-2.86-5.36s-1.86-3.41-2.77-5.09a67.39,67.39,0,0,0-4.88-8.18c-2-2.72-4.26-5.18-6.38-7.79a60.88,60.88,0,0,1-3.79-5.81c-1.37-2.38-2.84-4.69-4.28-7a62,62,0,0,0-4.75-6.71c-1.68-2.06-3.58-3.95-5.27-6-.81-1.09-1.59-2.2-2.41-3.29-1.21-1.61-2.41-3.28-3.48-5-2.13-3.4-4.19-6.81-6.64-10-3.83-5.3-6.76-11.16-10.1-16.75-1.64-2.78-3.46-5.46-5.24-8.16-1-1.47-1.9-3-2.8-4.58a33.5,33.5,0,0,1-1.94-3.94q-1-2.4-2-4.82l.5,1.17c-.69-1.66-1.37-3.31-2.08-5-.89-2.15-1.78-4.36-2.87-6.41s-2.11-4-3-6.1c-1.65-3.95-3.3-7.89-5.23-11.73-1-1.9-2-3.76-3-5.65s-2.23-4-3.18-6.08c-1.38-3.41-2.67-6.86-3.74-10.37-.59-2-1.25-4-2-5.92-.9-2.37-1.74-4.72-2.51-7.13-.58-1.84-1.2-3.65-1.76-5.49s-1.11-3.83-1.68-5.72c-.63-2.07-1.27-4.13-2-6.14-.49-1.3-1-2.58-1.63-3.82-.48-1-1-1.94-1.44-2.92-1.47-3.47-3.2-6.8-4.71-10.25-.17-.41-.32-.81-.46-1.21a5.22,5.22,0,0,0-2.26-2.93,4.81,4.81,0,0,0-2.48-.67,5.15,5.15,0,0,0-1.3.17,4.88,4.88,0,0,0-2.93,2.26c-.07.14-.13.29-.19.43s-.35.12-.52.21a4.81,4.81,0,0,0-2.25,2.93,41.37,41.37,0,0,1-1.45,6.51c-.74,1.65-1.54,3.31-2.36,4.91-1.25,2.44-2.35,5-3.44,7.49.09-.22.18-.41.25-.61-.52,1.21-1,2.46-1.55,3.67-1,2.26-1.92,4.55-3,6.76-1.29,2.52-2.92,4.87-4.37,7.3s-2.85,4.74-4,7.25-2.11,5-3.15,7.46l-.22.51c-1.74,4-3.61,8-5.48,11.89-1.07,2.28-2,4.61-3.06,6.91s-2.13,4.56-3.27,6.8a69.67,69.67,0,0,1-3.77,6.17c-1.22,1.93-2.56,3.77-3.73,5.72s-2.28,3.87-3.24,5.88c-.83,1.74-1.66,3.49-2.57,5.19-1.44,2.7-2.94,5.35-4.57,7.94-.85,1.4-1.71,2.8-2.6,4.18s-1.64,2.79-2.51,4.15c-1.85,2.91-3.64,5.87-5.66,8.66-1.67,2.28-3.25,4.62-5,6.84h0c-1.27,1.67-2.53,3.34-3.64,5.12-1,1.61-2,3.29-3,4.93-1.21,1.95-2.31,4-3.49,5.92-.82,1.34-1.72,2.63-2.64,3.89-1.59,1.95-3.3,3.78-5,5.69a66.24,66.24,0,0,0-5.65,7.34c-.69,1.09-1.32,2.22-2,3.31s-1.25,1.9-1.88,2.86c-1.31,2-2.5,4-3.91,5.94-2.7,3.41-5.52,6.74-8.08,10.25-1.41,1.92-2.64,3.95-3.94,5.95-1.16,1.82-2.34,3.64-3.55,5.44-2.67,4-5.25,8.16-7.61,12.38-2.15,3.8-3.66,7.94-5.66,11.82-1,2-2.15,4-3.31,6-1.33,2.28-2.61,4.6-3.9,6.92s-2.36,4.43-3.37,6.74c-.84,1.88-1.68,3.75-2.57,5.6-2.29,4.71-4.65,9.4-6.67,14.25-.82,1.93-1.46,3.94-2.09,5.94s-1.46,4.29-2.22,6.43c-.34,1-.7,2-1.08,2.93a68.83,68.83,0,0,0-2.68,6.76c-.71,2.15-1.28,4.36-1.92,6.53-1.14,3.8-2.48,7.51-3.82,11.24a87.75,87.75,0,0,0-3.42,11.57c-.94,4.47-2,8.94-2.89,13.44-1,5-1.78,10-2.28,15.11-.21,2.35-.39,4.7-.65,7.06-.28,2.6-.59,5.16-.72,7.77-.22,4.69-.23,9.4-.24,14.07s-.16,9.45.14,14.13c.14,2.25.26,4.48.32,6.72,0,2,.23,4,.37,6,.15,2.34.33,4.65.6,7,.26,2.18.52,4.38.8,6.56.29,2.36.56,4.73,1,7.07s.87,4.62,1.34,6.92,1.05,4.41,1.39,6.65a41.12,41.12,0,0,0,1.41,6,105.79,105.79,0,0,0,3.55,10.19c1.05,2.44,2.38,4.79,3.47,7.22,1.23,3.12,2.25,6.32,3.41,9.45a5.47,5.47,0,0,0,2,2.73c.87,2,1.78,4.06,2.8,6a53.74,53.74,0,0,0,3.58,6c1.71,2.42,3.34,4.89,5.17,7.23-.24-.32-.5-.66-.77-1l1.86,2.43a1.18,1.18,0,0,1-.13-.18l.29.39c.84,1.14,1.69,2.27,2.56,3.39-.26-.33-.52-.65-.77-1a137.58,137.58,0,0,0,8.94,10.89c1.19,1.25,2.41,2.48,3.58,3.75,1.47,1.63,2.8,3.42,4.15,5.16.88,1.16,1.75,2.32,2.64,3.48-.25-.34-.5-.67-.76-1,1.38,1.84,2.8,3.69,4.34,5.38s3.4,3.37,5.16,5a38.08,38.08,0,0,0,5.3,4.1c1.77,1.13,3.46,2.36,5.14,3.62.47.36,1,.71,1.39,1.07,2,1.59,3.93,3.27,5.95,4.83l-1-.75c3.76,2.93,7.43,6,11.31,8.83a61.06,61.06,0,0,0,5.72,3.67,55.68,55.68,0,0,0,7.14,3.19c2.16.8,4.35,1.49,6.51,2.23s4.35,1.5,6.55,2.05c2.58.62,5.18,1,7.73,1.65,2.1.52,4.2,1.11,6.33,1.53,1.52.31,3.08.49,4.62.68,1.36.2,2.72.43,4.08.7,1.69.32,3.39.45,5.08.66l2.22.29-1.31-.18c1.92.31,3.82.69,5.77.86,1.78.15,3.57.19,5.35.23,3.4,0,6.83.15,10.23-.09A5.09,5.09,0,0,0,534.4,822a1,1,0,0,0,.14-.15H539c2.22,0,4.46-.24,6.64-.43s4.49-.47,6.73-.71a94.4,94.4,0,0,0,13-2.41c3.87-1,7.77-2,11.64-3s7.8-2.12,11.59-3.43c2.6-.91,5.17-1.92,7.68-3a65.36,65.36,0,0,0,5.88-3c3.65-2,7.06-4.48,10.62-6.62,2-1.21,4.11-2.24,6.19-3.32,1.8-.95,3.61-1.88,5.42-2.81a126.22,126.22,0,0,0,12.31-7.09A85.89,85.89,0,0,0,648.8,777c1.47-1.38,2.91-2.78,4.25-4.28s2.73-3.2,4.12-4.78c.76-.87,1.55-1.74,2.39-2.54s1.87-1.56,2.82-2.33a59.31,59.31,0,0,0,4.69-4.14,95.67,95.67,0,0,0,8.75-9.8,1.63,1.63,0,0,1-.17.22l.75-1,0,0a0,0,0,0,0,0,0c1-1.29,1.92-2.57,2.9-3.84,1.54-1.92,3.14-3.79,4.62-5.72a45.93,45.93,0,0,0,3.85-6.28c1.15-2.14,2.38-4.26,3.69-6.32,1.51-2.34,3.1-4.58,4.7-6.88a4.28,4.28,0,0,0,.55-3.44c.17-.29.33-.54.5-.82a26.48,26.48,0,0,0,1.79-3.67c.18-.43.38-.86.57-1.31a67.7,67.7,0,0,0,2.76-6.94c.71-2.16,1.34-4.34,2-6.53,1.18-4.1,2.59-8.15,3.55-12.3,1-4.46,1.86-8.95,2.9-13.41,1-4.26,1.88-8.61,2.65-12.91a122.15,122.15,0,0,0,1.94-14.26c.28-4.7.2-9.43.2-14.15,0-9,.23-18-.25-26.93M557.36,802.07l1.48.13c.53,0,1,0,1.58.07.79,0,1.61.08,2.42.1,1,.06,2,0,3.06,0a2.16,2.16,0,0,0,2.32.11l.33-.21.84-.1c1.32-.13,2.65-.21,4-.41l4.21-.69c.32,0,.66-.12,1-.19l-.44.2.54-.06h0c1.32-.19,2.65-.18,4-.33a.23.23,0,0,1,.11,0h0l1.47-.22c.41-.06.81-.16,1.23-.2H586c.12,0,.23,0,.35,0h.08a1.5,1.5,0,0,1,.7.24,1.09,1.09,0,0,1,.36.35s0,0,0,0a1.21,1.21,0,0,1,.11.32,1,1,0,0,1,0,.11,1.4,1.4,0,0,1,0,.29v.14c-5.36,1.93-10.83,3.47-16.3,4.94-3.29.9-6.61,1.69-9.93,2.54a81,81,0,0,1-9.34,1.76c-2.1.23-4.23.42-6.34.65,2.6-2,5.16-4.09,7.71-6.19,1.31-1.07,2.58-2.18,3.86-3.29m45.39-48.47a2,2,0,0,0,.82-.54c.35-.4.67-.81,1-1.22,1,0,1.93,0,2.9.08,1.19,0,2.38.13,3.56.17s2.5.06,3.76.06a2,2,0,0,0,1-.26c1.7.13,3.4.26,5.11.34l-1.5,1.66c-.63.7-1.33,1.36-2,2-1.62,1.64-3.25,3.25-4.92,4.85s-3.31,3.24-5,4.81c-.38.34-.78.7-1.16,1.06l-.66.05-2.88.07c-.8,0-1.59,0-2.37-.09-1.42,0-2.86-.26-4.27-.45l-3-.41c1.29-1.64,2.56-3.29,3.83-4.93l5.79-7.28m38.4-18.31c2.15.05,4.3.09,6.46.09,2.52,0,5,0,7.57-.12,1.42,0,2.84-.09,4.27-.16-1.91,2.37-3.82,4.73-5.82,7-1.22,1.4-2.44,2.81-3.64,4.22-2,.24-3.93.53-5.89.67-2.44.21-4.87.43-7.29.58-2.14.12-4.26.26-6.4.32.93-1.07,1.84-2.16,2.76-3.24,1.65-1.93,3.35-3.84,5-5.79,1-1.2,2-2.42,3-3.61m8.57-11.6c.55-.87,1.09-1.75,1.63-2.64.93-1.52,1.86-3.06,2.79-4.6,1.6,0,3.22-.07,4.84-.23,2.17-.23,4.32-.57,6.46-1,1.12-.19,2.22-.38,3.32-.63,1.56-.33,3.11-.69,4.66-1.07-.3.61-.6,1.23-.89,1.86-.67,1.39-1.45,2.73-2.17,4.06s-1.68,2.91-2.56,4.32c-1.44,2.28-3,4.47-4.65,6.62-2.46.23-4.93.37-7.41.44-2.65.09-5.29.12-8,.12-1,0-2.08,0-3.13,0,1.1-1.44,2.17-2.92,3.24-4.39.66-.91,1.23-1.91,1.82-2.87m29.46-11.77c1.33-.47,2.67-.92,4-1.39s2.8-1,4.17-1.56c.6-.23,1.2-.46,1.79-.72a1,1,0,0,1-.06.18h0c.22-.08.45-.18.68-.25-.92,1.81-2,3.51-3,5.3-.59,1.18-1.13,2.37-1.76,3.54s-1.41,2.33-2.14,3.48a4.69,4.69,0,0,0-.65,2.07c-.39.64-.81,1.28-1.19,1.93-.08.13-.16.27-.23.41a.37.37,0,0,1-.14,0c-2,1-4,1.91-6,2.78a35.68,35.68,0,0,1-5.46,1.72,92.18,92.18,0,0,0,7.6-12.93c.74-1.53,1.46-3,2.19-4.57a.29.29,0,0,1,.14,0m15-64.52c.08-.35.14-.71.22-1,.27,0,.53.07.78.11a35.38,35.38,0,0,0,4.24.18c1.19,0,2.39-.15,3.56-.29.81-.08,1.62-.2,2.41-.31-.06.79-.14,1.57-.22,2.35-.56,3.7-1.22,7.37-1.94,11-2.49.68-5,1.31-7.48,1.87-.89.18-1.76.39-2.66.52s-1.78.28-2.67.41c.65-2.57,1.29-5.13,1.93-7.7.62-2.37,1.22-4.76,1.83-7.11m-12.49-97.72c-1.32-3.85-2.65-7.68-4.06-11.48-.24-.65-.49-1.27-.74-1.9l2.12-1.08c1.69-.83,3.4-1.65,5.1-2.42a80,80,0,0,0,3.59,7.68c1.06,1.93,2.14,3.88,3.14,5.84-2.55,1-5.09,2-7.66,2.88-.49.17-1,.31-1.49.48m-6.75-18.06c-.46-1-.9-2.07-1.39-3.12-.61-1.27-1.23-2.54-1.84-3.82s-1.41-2.82-2.17-4.22l1.17-.63c1.46-.76,3-1.47,4.43-2.24.44-.22.85-.45,1.26-.68.75,1.45,1.54,2.89,2.34,4.3a82.54,82.54,0,0,1,3.68,7.57c-1.64.73-3.25,1.51-4.87,2.3-.79.39-1.56.79-2.36,1.17-.09-.2-.18-.42-.25-.63m-10.21-20c-1.12-2-2.23-4.05-3.37-6.06.3-.17.6-.35.89-.5.67-.37,1.37-.69,2-1.11l2.58-1.67a23.41,23.41,0,0,0,2.2-1.61c.18.3.37.61.54.92q1,1.94,1.83,3.93c.95,2.27,1.95,4.5,2.92,6.75l.27.63c-1.15.62-2.33,1.22-3.5,1.8s-2.43,1.25-3.63,1.88c-.91-1.67-1.81-3.32-2.73-5m-6.83-12.43c-.85-1.62-1.68-3.24-2.53-4.87-.69-1.34-1.44-2.65-2.21-4,2.19-.9,4.35-1.87,6.53-2.83.26-.1.53-.2.8-.32.94,1.54,1.94,3,2.93,4.54,1.11,1.7,2.2,3.41,3.31,5.12-.25.21-.47.43-.71.62-1.18.87-2.41,1.66-3.64,2.46-.87.56-1.81,1-2.71,1.52a3.23,3.23,0,0,1-.41.22c-.45-.83-.91-1.66-1.36-2.5m-29.33-19.15-.09,0c-.51.2-1,.39-1.55.61l-.09-.1-2.31-2.4c-.51-.52-1-1.09-1.44-1.65-1.07-1.29-2.11-2.59-3.16-3.88-2.74-3.69-5.36-7.48-8.13-11.17-1.12-1.49-2.26-3-3.38-4.44l2-.86c3.16-1.35,6.2-2.93,9.22-4.56,1.14,1.54,2.31,3.08,3.45,4.63s2.47,3.3,3.7,5c-.33.13-.67.27-1,.38a22.68,22.68,0,0,1-2.78.82,2.19,2.19,0,1,0,1.17,4.23,28,28,0,0,0,3.48-1.09c.6-.22,1.19-.48,1.79-.74.65.88,1.29,1.78,1.9,2.69,1.87,2.78,3.73,5.59,5.6,8.37-.55.32-1.1.62-1.67.93-2.19,1.19-4.48,2.22-6.76,3.22m-26-30.69c-.92-1.21-1.87-2.43-2.82-3.65-.74-1-1.48-2.06-2.23-3.09s-1.29-2-1.92-2.93c-1.24-1.91-2.32-3.94-3.41-6-.55-1-1.12-2-1.71-3,1-.53,2.06-1.06,3.07-1.61,2.28-1.25,4.52-2.59,6.72-4,1.74,2.49,3.53,5,5.31,7.41l.75,1c-2.07,1.07-4.16,2.16-6.26,3.19a2.19,2.19,0,1,0,2.22,3.78c2.23-1.09,4.46-2.24,6.66-3.41,1.67,2.28,3.36,4.56,5,6.84q1.55,2.08,3.1,4.15l-.31.16c-1.79.93-3.56,1.88-5.4,2.75-1.63.78-3.27,1.49-4.92,2.21l0,0h0a3,3,0,0,1-.46.21,1.66,1.66,0,0,0,.33-.16l-.59.25c-1.06-1.37-2.1-2.76-3.18-4.13M584.56,421.9l-2.71-3.78c.61-.3,1.21-.58,1.81-.86,2.22-1.08,4.36-2.28,6.5-3.47.71-.4,1.39-.84,2.08-1.27,1.63,2.92,3.28,5.81,5.14,8.6.09.15.21.29.31.44-.65.43-1.33.82-2,1.22-.92.58-1.86,1.15-2.82,1.7l-3.51,1.9c-.42.22-.84.44-1.27.65-1.11-1.75-2.32-3.44-3.53-5.13m-4.4-62.45c.49,1.16,1,2.34,1.46,3.51-.1-.26-.2-.51-.32-.77.77,1.82,1.53,3.67,2.31,5.48-.42.27-.83.55-1.27.82-1.46.86-2.92,1.69-4.42,2.51s-2.74,1.47-4.11,2.21c-1.16-2.21-2.32-4.38-3.51-6.55.7-.37,1.41-.77,2.11-1.18a44.4,44.4,0,0,0,7.75-6m46.46,393c.94,0,1.87,0,2.81,0,2.51,0,5-.23,7.52-.39s4.83-.37,7.25-.56c.46,0,.91-.1,1.36-.15L643,754c-.89.91-1.77,1.84-2.64,2.77-.45.48-1,.92-1.45,1.38-1.53,1.42-3,2.86-4.59,4.31-.95.22-1.92.42-2.88.62s-2,.41-3,.59q-4,.72-8,1.33c-2,.31-3.9.58-5.86.88a.09.09,0,0,1,.06,0l-1.31.15c.18-.18.37-.34.55-.51,1.67-1.61,3.35-3.2,5-4.84,1.07-1.09,2.16-2.19,3.25-3.28.69-.68,1.31-1.44,2-2.17s1.52-1.64,2.25-2.5c.07-.1.16-.2.24-.3m38.25-17.07.6-.77a41.65,41.65,0,0,0,10.11-2.48c.53-.22,1-.45,1.56-.68-.5.78-1,1.56-1.58,2.3-1,1.23-2,2.44-3,3.67-.84,1-1.64,2.09-2.44,3.16a8.34,8.34,0,0,1-1.05.31l-2.62,1.23-2.54,1a45.74,45.74,0,0,1-6.79,2l-.29,0c.35-.38.68-.78,1-1.18,1.46-1.68,2.81-3.42,4.2-5.12,1-1.17,1.9-2.32,2.84-3.49m25-27.19-.13.28.13-.28h0m-100.3,89.33a1.57,1.57,0,0,1,.13-.4v0a1.55,1.55,0,0,1,.32-.35,1.62,1.62,0,0,1,.41-.22l.09,0,.5-.18c.48-.23.94-.49,1.41-.73l.21-.11c.61-.29,1.24-.55,1.82-.89,0,0,0,0,0,0a9.54,9.54,0,0,1,.86-.54c.31-.17.62-.32.94-.46a7.59,7.59,0,0,1,.78-.33.44.44,0,0,0,.1-.08c.44-.29.87-.59,1.28-.91s.91-.83,1.41-1.14a1.41,1.41,0,0,1,.72-.22,1,1,0,0,1,.35,0l.06,0c.46-.41,1.28-.32,1.86-.32h1.56c.54,0,1.09,0,1.64-.08l0,0c.21,0,.39,0,.58,0l.36,0c.23,0,.45-.08.68-.1h0c.34-.07.7-.13,1.06-.18h0c-1.78,1-3.5,2.12-5.24,3.2a110.34,110.34,0,0,1-10.65,6.26c-.26.13-.51.23-.77.35a2.28,2.28,0,0,1-.69,0h-.1a1.7,1.7,0,0,1-.4-.13.75.75,0,0,1-.18-.13,1.21,1.21,0,0,1-.28-.18h0a2.58,2.58,0,0,1-.72-1.22l0-.08a1.55,1.55,0,0,1-.07-.23,1,1,0,0,1,0-.34,1,1,0,0,1,0-.17m62.73-47.07,2.2-.39c1.94-.33,3.85-.7,5.74-1.19.68-.16,1.36-.34,2-.56l.25-.09c.28-.1.58-.18.86-.26l.21-.07.68-.24.21-.08,0,0c-1.25,1.37-2.5,2.69-3.81,4s-2.45,2.39-3.77,3.48-2.67,2.09-3.94,3.21l-.4.12-1,.27-1,.15-.59.1h0l-.11,0h-.14l-.15,0h0a2.61,2.61,0,0,0-.63.13,1.2,1.2,0,0,1-.94-.12,1.15,1.15,0,0,1-.55-.72c-1.23.52-2.47,1-3.73,1.46.3-.29.58-.57.86-.87,1.15-1.23,2.32-2.46,3.49-3.67,1.33-1.4,2.65-2.76,3.88-4.21.14-.17.29-.32.42-.47m-20.41,20.37,4.63-4.36c1-.28,2-.53,3.07-.8.45-.15.87-.3,1.33-.44.77-.27,1.55-.53,2.34-.77,1-.32,1.93-.66,2.89-1a10.87,10.87,0,0,1,1-.44c.26-.09.51-.2.78-.27.44-.18.89-.36,1.32-.55-1.1,1.32-2.19,2.66-3.34,3.92a66.26,66.26,0,0,1-7.36,6.85c-1.69,1.23-3.44,2.38-5.19,3.54-2,1.32-4,2.64-6.07,3.83-3.38,2-6.85,3.76-10.33,5.56a2.09,2.09,0,0,1,0-.24,1.22,1.22,0,0,1,.07-.38h0a.17.17,0,0,0,0-.07,1,1,0,0,1,.27-.37,3,3,0,0,1,.24-.18s0,0,0,0,0,0,0,0,.23-.21.36-.33.35-.31.51-.47h0a3.25,3.25,0,0,0,.27-.26c.1-.1.23-.21.33-.33a2.26,2.26,0,0,1,.32-.29c.29-.29.56-.53.88-.8a15.76,15.76,0,0,0,1.4-1.32c.44-.42.88-.84,1.33-1.25l.91-.82q4-4,8-7.87M604,774.71l4.17-3.8c.7,0,1.38-.09,2.05-.18,1.49-.14,2.94-.3,4.4-.46,1.27-.16,2.56-.37,3.83-.55,1-.15,1.94-.27,2.9-.43q3.49-.54,7-1.16L627,769.32c-1.72,1.63-3.37,3.32-5,5-2.24,2.22-4.44,4.47-6.65,6.7-.8.84-1.65,1.66-2.48,2.46a50.93,50.93,0,0,1-8,1.9c-2.92.36-5.88.46-8.82.64-1.57.08-3.13.13-4.71.18.41-.35.81-.69,1.2-1q5.72-5.24,11.46-10.43M581.38,794c1.54-1.08,3-2.21,4.51-3.33,1.09,0,2.15,0,3.23,0l4.6-.14c1.14,0,2.28-.11,3.42-.17-1.09.45-2.2.88-3.31,1.31-1.48.53-3,1.08-4.42,1.64-1,.39-2.12.7-3.17,1-2.08.67-4.19,1.27-6.32,1.75-.81.15-1.59.33-2.38.51,1.28-.86,2.58-1.72,3.84-2.6M631.22,459.3l-.36.16c-2.3-3.12-4.61-6.25-6.93-9.36-.15-.2-.28-.38-.42-.55,1.21-.68,2.39-1.41,3.57-2.13a49.23,49.23,0,0,0,4.73-3.28c.45-.35.87-.74,1.32-1.12.69,1,1.4,2,2.15,2.91,1.56,2,3.27,3.83,4.84,5.78.5.71,1,1.42,1.45,2.13l-3,1.52c-1.19.6-2.33,1.27-3.5,1.91s-2.55,1.39-3.84,2m-17-22.22c-.5-.67-1-1.36-1.49-2l.61-.33c3.62-2,7-4.27,10.48-6.5,1.09,1.59,2.09,3.22,3.13,4.85,1.31,2.06,2.52,4.19,3.78,6.29-.55.51-1.14,1-1.74,1.47a81,81,0,0,1-7.72,5c-.12.08-.25.14-.41.23q-3.3-4.49-6.64-8.93m-15.65-22.32c-.88-1.52-1.73-3.06-2.59-4.61,0,0,0,0,0,0,.48-.29.92-.68,1.37-1l2-1.46c.9-.65,1.75-1.36,2.64-2l-.08,0c.05,0,.06-.06.12-.09l.14-.12-.12.11c1.08-.83,2.17-1.64,3.28-2.44,1.14,1.64,2.22,3.35,3.29,5,.77,1.22,1.48,2.46,2.3,3.65-1.3,1.1-2.56,2.2-3.87,3.25-1.73,1.31-3.46,2.63-5.28,3.85-.14.09-.28.19-.44.28-1-1.44-1.92-2.92-2.79-4.42m-7.12-12.63c-1.8-3.1-3.67-6.15-5.59-9.18a.54.54,0,0,0,.15-.09c1.54-1,3.09-1.93,4.58-3,.82-.58,1.65-1.15,2.42-1.79s1.28-1,1.91-1.56c1.17,2.05,2.33,4.11,3.52,6.15,1.36,2.34,2.78,4.69,4.36,6.93-.17.11-.33.22-.5.35-1.72,1.24-3.37,2.55-5,3.86-1,.72-2,1.47-3,2.21a4.76,4.76,0,0,0-.47.31c-.78-1.4-1.55-2.8-2.37-4.19m14.28,19.33c1.54-1.08,3.07-2.16,4.51-3.36,1.09-.89,2.17-1.82,3.24-2.72,1.53,2.06,3,4.21,4.69,6.14,1,1.09,1.91,2.17,2.87,3.26-3.25,2.13-6.49,4.27-9.9,6.15l-1,.55c-1.42-2-2.83-3.9-4.25-5.84-.68-.94-1.35-1.91-2-2.87.62-.44,1.27-.86,1.89-1.31m-25.49-46.74q2.28-1.22,4.47-2.54l.91-.61c.39.69.79,1.37,1.21,2.05,1.89,3.06,4,6,5.85,9.08h0s0,0,0,0c-.9.75-1.83,1.51-2.74,2.25l-2.41,1.72c-.8.56-1.63,1.05-2.45,1.57l-1.59,1c-2.38-3.63-4.93-7.16-7-11-.2-.39-.41-.78-.63-1.18,1.47-.78,2.93-1.56,4.39-2.36m1.88,20.49q.35.56.72,1.11c2.53,4.05,5,8.16,7.3,12.35l-1.59,1c-.31.21-.66.37-1,.55l-2.35,1.29c-.9.47-1.77,1-2.69,1.44s-2.13,1-3.18,1.51c-.82-1.26-1.64-2.53-2.38-3.85-1.2-2.14-2.38-4.32-3.47-6.54-.57-1.15-1.12-2.31-1.67-3.47l2.14-1c2-.94,4-2,5.95-3.16.71-.44,1.46-.86,2.2-1.28m58.69,78.6c-2.39-3.61-4.78-7.24-7.31-10.77.57-.27,1.14-.55,1.69-.86,1.66-.87,3.3-1.78,4.94-2.68,1.21-.68,2.44-1.29,3.68-1.91,1,1.69,1.86,3.38,2.81,5.08s1.91,3.56,2.84,5.34c.14.27.31.54.45.82-2.75,1.46-5.5,2.95-8.21,4.5-.28.15-.59.33-.89.48M590.5,769.06a2.07,2.07,0,0,0,1.27.94q4.15.62,8.34,1c.44.05.87.07,1.32.08-.08.06-.13.13-.19.18l-7.86,7.14c-1.42,1.29-2.8,2.63-4.26,3.87s-3.12,2.64-4.67,4c-.8,0-1.62,0-2.46,0-2.25-.05-4.48-.1-6.73-.22l2.65-2.59c.56-.55,1.09-1.18,1.62-1.76l6-6.49c.76-.83,1.45-1.74,2.15-2.61,1-1.16,1.91-2.32,2.86-3.49m-19.6,21.12c.32,0,.64,0,1,0,2.27.13,4.53.21,6.78.3-.85.61-1.67,1.22-2.51,1.79-2.95,1.94-5.91,3.83-8.93,5.61h-.63c-1,0-2,.05-3,.06-.51,0-1,0-1.55,0l2-1.71q2.93-2.53,5.82-5.11l1.06-1m-21.81-506.4c.09.34.22.68.32,1a1.78,1.78,0,0,0-.48.36,41.32,41.32,0,0,1-4.07,4.3,2.19,2.19,0,0,0,0,3.1,2.26,2.26,0,0,0,1.55.65,2.23,2.23,0,0,0,1.54-.65,28,28,0,0,0,3-3.07,1.91,1.91,0,0,1,.1.34c.57,1.88,1.16,3.73,1.77,5.59s1.2,3.64,1.85,5.45c-1.73.69-3.43,1.44-5.21,2a2.19,2.19,0,1,0,1.17,4.22,51,51,0,0,0,5.5-2.1h0c.44,1.16.85,2.34,1.23,3.52.64,2,1.24,4,2,6,.15.39.31.77.46,1.17a3.55,3.55,0,0,0-.52.56l-.2.28a17.34,17.34,0,0,1-2,2.18,15.26,15.26,0,0,1-2.54,1.39,19.59,19.59,0,0,1-4.28,1.07l-.31.05c-.37-1.15-.74-2.28-1.07-3.44-.49-1.76-.91-3.53-1.31-5.32a2.18,2.18,0,0,0-2.14-1.6,3.31,3.31,0,0,0-.55.07,2.24,2.24,0,0,0-1.54,2.71c.39,1.71.8,3.43,1.27,5.15.37,1.38.85,2.73,1.28,4.09,1,3.06,2.21,6.07,3.37,9.09a2.17,2.17,0,0,0,2.71,1.53,2.2,2.2,0,0,0,1.29-1,2.12,2.12,0,0,0,.22-1.69c-.69-1.81-1.39-3.6-2.05-5.42A21.22,21.22,0,0,0,556,324.1a17.13,17.13,0,0,0,4.19-2.42,9.33,9.33,0,0,0,1.4-1.41,62,62,0,0,0,2.72,5.7c1.05,2.23,2.19,4.42,3.36,6.6.46.87,1,1.71,1.46,2.55,1.18,2.39,2.23,4.83,3.3,7.29s2,4.85,3.19,7.21c.94,1.83,1.86,3.68,2.72,5.56l-.06.07c-1.58,1.53-3.26,3.05-5,4.43a46,46,0,0,1-5.14,3.2c-1.89-3.24-3.83-6.46-5.71-9.68-.53-.91-1-1.82-1.56-2.72-.62-1.08-1.18-2.13-1.72-3.2-.24-.59-.5-1.2-.73-1.78a2.3,2.3,0,0,0-1-1.3,2,2,0,0,0-1.09-.31,2.8,2.8,0,0,0-.59.07,2.24,2.24,0,0,0-1.31,1,2,2,0,0,0-.22,1.68c.27.71.58,1.42.86,2.12s.64,1.38,1,2.06c.46.93,1,1.82,1.54,2.73q1.8,3.15,3.67,6.29c1,1.66,2,3.32,3,5l-3.12,1.37c-3.8,1.67-7.63,3.31-11.46,4.95a2.16,2.16,0,0,0-1,1.32,2.24,2.24,0,0,0,.22,1.68,2.29,2.29,0,0,0,1.31,1,2.35,2.35,0,0,0,1.7-.24c4.73-2,9.48-4.08,14.2-6.16l.28-.15c.63,1.15,1.28,2.28,1.88,3.42s1.09,2.06,1.62,3.1c-.57.29-1.14.6-1.73.88a2.17,2.17,0,0,0-.78,3,2.05,2.05,0,0,0,1.3,1,2.34,2.34,0,0,0,1.68-.21c.53-.25,1-.52,1.56-.78,1,1.9,2.09,3.74,3.23,5.55,1.34,2.1,2.77,4.16,4.15,6.24l.43.66q-2.25,1.35-4.58,2.62c-.8.44-1.6.9-2.44,1.28s-1.93.91-2.89,1.36l-.36.15a2,2,0,0,0-.87-.2,2.09,2.09,0,0,0-2,1.35c-2.65,1.06-5.31,2.11-8,3.2a2.44,2.44,0,0,0-1.31,1,2.22,2.22,0,0,0-.21,1.69,2.19,2.19,0,0,0,1,1.32,2,2,0,0,0,1.68.2c2.34-1,4.71-1.87,7.06-2.79l.95-.39c.66,1.37,1.3,2.75,2,4.09,1.1,2.29,2.33,4.51,3.59,6.73.61,1.09,1.28,2.15,2,3.19-.88.38-1.77.77-2.67,1.12-1.26.49-2.55.94-3.85,1.34s-2.6.68-3.92,1c-1,.23-2.07.44-3.1.66-2.12.48-4.27.84-6.42,1.22a2.06,2.06,0,0,0-1.31,1,2.14,2.14,0,0,0-.23,1.67,2.2,2.2,0,0,0,1,1.32,2.44,2.44,0,0,0,1.68.24c2.53-.44,5.05-.89,7.55-1.45,2.25-.49,4.5-1,6.71-1.68,2-.62,3.85-1.41,5.74-2.2.44-.2.88-.38,1.32-.56,1,1.44,2.07,2.87,3.08,4.33s2.15,3.11,3.19,4.68l-1,.48c-1.74.79-3.47,1.58-5.2,2.33a2.13,2.13,0,0,0-1,1.32,2.18,2.18,0,0,0,1.54,2.69,2.48,2.48,0,0,0,1.69-.22c2.12-.92,4.21-1.88,6.3-2.88q1.21,2.06,2.35,4.14c.57,1.07,1.17,2.12,1.76,3.19s1.14,1.85,1.72,2.75c1.32,2,2.69,4,4.16,5.89,1.35,1.75,2.71,3.48,4,5.22l-.09-.12c.36.47.72.93,1.06,1.39a46.6,46.6,0,0,1-6.65,2,2.19,2.19,0,1,0,1.17,4.23,47.24,47.24,0,0,0,7-2.13c.42-.15.83-.33,1.24-.48,1.6,2.07,3.19,4.16,4.73,6.28,3,4.12,5.89,8.29,9.07,12.26,1,1.21,2,2.39,3,3.58.42.52.93,1,1.39,1.47-.52.16-1,.37-1.55.52-2.88.85-5.79,1.59-8.73,2.18a2.2,2.2,0,0,0-.54,4,2.28,2.28,0,0,0,1.69.22,82.19,82.19,0,0,0,12.62-3.49q2.8,2.7,5.65,5.35a2.24,2.24,0,0,0,3.1,0,2.2,2.2,0,0,0,0-3.11c-1.42-1.3-2.84-2.65-4.23-4l.07,0c1.11-.51,2.29-1,3.38-1.51l3.59-1.81c1.07-.54,2.12-1.14,3.17-1.71,1.32-.73,2.66-1.49,4-2.25s2.54-1.41,3.81-2.1,2.48-1.33,3.73-2l.8,1.34c1.11,1.85,2.3,3.65,3.34,5.53.72,1.31,1.38,2.63,2.06,4-2.12.91-4.24,1.81-6.36,2.74s-4.25,1.74-6.42,2.54c-2.55.93-5.08,1.92-7.61,2.93a2.38,2.38,0,0,0-1.31,1,2.05,2.05,0,0,0-.22,1.67,2.18,2.18,0,0,0,2.7,1.54c3.3-1.32,6.62-2.55,9.93-3.82,2.28,3.78,4.23,7.74,6.28,11.64-.38.16-.77.34-1.16.54-1.64.66-3.3,1.34-5,1.94-2,.71-3.95,1.39-5.95,2s-3.78,1.19-5.68,1.77a50.38,50.38,0,0,1-6.37,1.62,2.28,2.28,0,0,0-1.32,1,2.23,2.23,0,0,0,.8,3,2.31,2.31,0,0,0,1.69.21,52.93,52.93,0,0,0,7.05-1.83c2.43-.76,4.85-1.51,7.25-2.32,2.12-.69,4.25-1.43,6.34-2.28,1.15-.49,2.37-.92,3.52-1.47.31-.13.61-.28.9-.43,1.81,3.27,3.64,6.51,5.45,9.77.23.42.44.84.69,1.27l-.57.27-3.56,1.38a2.18,2.18,0,0,0-.52,4,2.21,2.21,0,0,0,1.69.23c1.68-.67,3.35-1.31,5-2,.69,1.31,1.36,2.62,2,3.94,1.32,2.56,2.49,5.21,3.64,7.86-.46.23-.92.46-1.41.68l-3,1.35c-1.24.51-2.47,1-3.74,1.48l-2.38.9c-.81.3-1.67.51-2.49.76l-.46.11c-.51-1.13-1-2.25-1.59-3.38-1-2.1-1.92-4.22-3.06-6.25-.24-.48-.5-.94-.76-1.4a2.2,2.2,0,0,0-1.92-1.08,2.17,2.17,0,0,0-1.09.29,2.23,2.23,0,0,0-.78,3c.6,1.06,1.24,2.15,1.77,3.26s1.13,2.41,1.7,3.62l1.4,2.93c-1.15.22-2.28.41-3.43.57-3.75.37-7.5.52-11.27.75a2.19,2.19,0,0,0,0,4.38c2.54-.16,5.06-.27,7.59-.43a61.1,61.1,0,0,0,7.38-.86c.51-.09,1-.22,1.54-.33.8,2,1.56,3.93,2.24,5.95.74,2.23,1.55,4.44,2.36,6.63,1.61,4.26,3.31,8.45,4.89,12.72,1.33,3.6,2.38,7.3,3.41,11,.52,1.84,1,3.69,1.37,5.58s.69,3.91,1,5.88c.34,2.82.49,5.64.59,8.49.09,3,.16,6.06.1,9.08a2.19,2.19,0,0,0,4.38,0c0-2.43,0-4.89-.06-7.34s-.16-4.91-.31-7.36-.56-4.65-1-7-.82-4.64-1.42-6.91c-1.15-4.25-2.34-8.52-3.88-12.66s-3.31-8.45-4.88-12.71c-.84-2.2-1.63-4.39-2.37-6.61-.66-2-1.4-3.89-2.18-5.83l1.61-.47c2.32-.71,4.56-1.68,6.79-2.58,1.68-.68,3.35-1.45,5-2.25.07.19.15.38.23.57.55,1.54,1.14,3,1.68,4.6q1.3,3.75,2.6,7.51c-2.3.62-4.63,1.17-6.93,1.74a2.19,2.19,0,1,0,1.15,4.23c2.55-.64,5.1-1.24,7.61-1.93a2.12,2.12,0,0,0,1.86.36,2.31,2.31,0,0,0,1.47-1.36c.56-.18,1.14-.35,1.7-.54,2.79-1,5.55-2.06,8.29-3.15,1.23,3.23,2.36,6.49,3.43,9.76,1.32,4.16,2.39,8.39,3.65,12.58a121.4,121.4,0,0,1,2.84,12.56c.25,1.25.49,2.51.77,3.77h0a2.59,2.59,0,0,1-1,0,1.54,1.54,0,0,1-.35-.1c-.33.06-.66.14-1,.19a34.54,34.54,0,0,1-3.92.16,2.2,2.2,0,0,0-2.21,2.19,2.24,2.24,0,0,0,2.21,2.19c1,0,2,0,3,0a19.51,19.51,0,0,0,2.82-.39l.86-.51c.14-.08.27-.19.42-.27h0c.39,1.82.77,3.64,1.05,5.47a104.07,104.07,0,0,1,.68,13c0,4.28,0,8.58,0,12.87s0,8.36,0,12.55c0,1.79,0,3.61-.1,5.42a.08.08,0,0,0,0,0l-2.2.34a48.36,48.36,0,0,1-4.83.34c-1.1,0-2.22-.09-3.33-.19.06-.31.14-.6.18-.91l.69-4.37c.2-1.32.31-2.65.44-4,.23-2.18.41-4.34.48-6.52,0-.78,0-1.55.08-2.33,1.82-.07,3.64-.12,5.48-.17a2.23,2.23,0,0,0,2.19-2.19,2.21,2.21,0,0,0-2.14-2.19h0l-5.49.15c0-.14,0-.28,0-.42-.07-2.65-.25-5.32-.43-8a2.49,2.49,0,0,0-.64-1.55,2.23,2.23,0,0,0-1.55-.64,2.21,2.21,0,0,0-2.21,2.19c.23,3,.44,6,.49,9.09a2,2,0,0,0-.72,1.59,2.2,2.2,0,0,0,.68,1.57v.16c-.08,2.24-.19,4.45-.35,6.7-.11,1.89-.35,3.76-.56,5.66s-.56,3.64-.91,5.46a2.3,2.3,0,0,0-1.61.23,2.12,2.12,0,0,0-1,1.31,2.19,2.19,0,0,0,1.52,2.7l.21,0-.08.43c-.28,1.28-.67,2.57-1,3.87-1.09,4.24-2.15,8.47-3.24,12.69-1.25.12-2.54.26-3.79.36a2.39,2.39,0,0,0-1.55.64,2.19,2.19,0,0,0,1.55,3.74c.87-.06,1.73-.16,2.59-.24q-.74,2.64-1.53,5.25c-.93,3.14-1.83,6.28-2.73,9.42a2.19,2.19,0,0,0,4.23,1.17c.74-2.66,1.51-5.31,2.28-7.95.68-2.26,1.39-4.52,2-6.8.14-.5.27-1,.41-1.54,1.68-.18,3.36-.46,5-.71s3.2-.65,4.79-1c1.06-.24,2.13-.52,3.19-.8-.69,3.23-1.41,6.47-2.14,9.7-.54,2.31-1,4.63-1.46,6.94-.08.35-.18.71-.27,1.07-1.86.93-3.73,1.84-5.62,2.68a45.13,45.13,0,0,1-10.12,2.9,27.44,27.44,0,0,1-6.21.08,18.75,18.75,0,0,1-3.69-1,2.11,2.11,0,0,0-1.69.21,2.2,2.2,0,0,0-.78,3,2.38,2.38,0,0,0,1.32,1c.81.31,1.63.57,2.46.8a17.35,17.35,0,0,0,3,.43,26.21,26.21,0,0,0,5.6-.11,43.2,43.2,0,0,0,11.93-3.35l1.37-.58a.92.92,0,0,1,.42-.43,4.56,4.56,0,0,0,.61-.33c-.57,2-1.21,4-1.8,6s-1.21,4.27-1.89,6.37c-.33,1-.71,2.08-1.11,3.1l0,0a3.16,3.16,0,0,1-.75.11h0l-.24,0a2,2,0,0,0-.35.09c-2,.8-4,1.56-6,2.31-1,.4-2,.79-3.05,1.14,1.34-2.85,2.68-5.7,4.09-8.53a2.16,2.16,0,0,0-1.9-3.28A2.08,2.08,0,0,0,682,695.7c-2.05,4.12-4,8.34-6,12.48a.39.39,0,0,0-.06.13l-1.91.56c-1.17.36-2.37.62-3.56.92-2.31.59-4.67,1-7,1.4-1,.16-1.93.32-2.89.45-1.66.2-3.3.33-5,.39a2.06,2.06,0,0,0-1.92-1.24,2.25,2.25,0,0,0-1.9,1.08c0,.06-.07.13-.12.2-1.62,0-3.26-.07-4.87-.14a2.18,2.18,0,0,0-1.77.92c-3.18,0-6.36-.05-9.53-.37-1.69-.24-3.37-.56-5-.92.59-.86,1.15-1.74,1.72-2.63,1.24-2,2.39-4,3.47-6.1.52-1,1-2,1.41-3.07s1-2.31,1.51-3.5c.9-2.19,1.64-4.42,2.37-6.69,1.38-4.38,2.69-8.77,4.27-13.09.78-2.18,1.67-4.31,2.46-6.47.09-.26.19-.51.26-.77l3.57.18a95,95,0,0,0,10,.27,2.23,2.23,0,0,0,2.18-2.19,2.19,2.19,0,0,0-2.18-2.19,93,93,0,0,1-9.88-.28l-2.18-.11c.17-.52.36-1,.53-1.55a115.86,115.86,0,0,0,3.46-13.23c.9-4.63,1.57-9.32,2.28-14,.37-2.38.83-4.75,1.1-7.15.23-2.24.33-4.52.41-6.77s.18-4.68.18-7,0-4.71-.1-7.06-.21-4.61-.34-6.9-.17-4.69-.37-7a54.8,54.8,0,0,0-2-11.73c-.54-1.79-1.19-3.56-1.73-5.35a56,56,0,0,1-1.23-5.72,2.17,2.17,0,0,0-2.16-1.6,1.71,1.71,0,0,0-.54.07,2.2,2.2,0,0,0-1.53,2.7c.3,1.58.59,3.16,1,4.73.35,1.39.82,2.78,1.29,4.15.53,1.55,1,3.1,1.37,4.68a40.66,40.66,0,0,1,.76,4.16c.25,2.28.42,4.55.57,6.84s.22,4.82.35,7.23c.24,4.65.36,9.34.23,14-.13,3.73-.23,7.46-.62,11.16-.33,2.21-.71,4.39-1.05,6.6s-.66,4.49-1,6.72-.76,4.59-1.22,6.86-1,4.48-1.6,6.71c-.75,2.76-1.62,5.5-2.53,8.2-1-.08-1.93-.13-2.9-.24h-.12a2.21,2.21,0,0,0-2.09,2.19,2.32,2.32,0,0,0,.64,1.56,2.35,2.35,0,0,0,1.57.64c.46.05.93.07,1.38.12-.06.19-.13.4-.21.59-.84,2.27-1.74,4.53-2.56,6.81s-1.46,4.31-2.14,6.47c-1.29,4.08-2.5,8.19-4.09,12.15-.92,2.13-1.79,4.25-2.85,6.29s-2.19,4-3.4,5.88c-.72,1.14-1.47,2.24-2.23,3.36l-.54-.14c-1.25-.25-2.54-.32-3.8-.46h-.14A2.2,2.2,0,0,0,620,713.6a2.29,2.29,0,0,0,1.55.64c.52,0,1,.11,1.55.18a38.41,38.41,0,0,0-2.68,4.28c-1,2-1.93,4-2.86,6a2.33,2.33,0,0,0-.21,1.68,2.12,2.12,0,0,0,1,1.31,2.21,2.21,0,0,0,1.69.21,2.17,2.17,0,0,0,1.3-1c.52-1.11,1-2.22,1.53-3.33s1-2,1.5-3,1.25-2.1,1.91-3.13c.46-.69,1-1.38,1.45-2.05.34.09.69.19,1,.27,1.9.46,3.84.77,5.77,1a57,57,0,0,0,6.54.44c2.32,0,4.64,0,6.94,0a2.53,2.53,0,0,0,.57-.08c-.7,1.15-1.4,2.31-2.12,3.45-.84,1.34-1.62,2.74-2.57,4s-2.1,2.88-3.18,4.33l-1.59,1.88c-1.86-.06-3.71-.11-5.57-.19l-1.09,0a2.2,2.2,0,0,0-2.19,2.19,2.24,2.24,0,0,0,2.19,2.19l3.07.12c-1.33,1.58-2.64,3.16-4,4.74s-2.85,3.28-4.24,4.95c-.89,1.06-1.78,2.14-2.69,3.2l-3.49-.14c-2.64-.09-5.28-.35-7.9-.55a1.85,1.85,0,0,0-1.26.38c-1.27,0-2.52-.06-3.8-.14l-.86,0c.34-.64.69-1.27,1-1.9a2.21,2.21,0,0,0-.78-3,2.17,2.17,0,0,0-1.09-.29,2.14,2.14,0,0,0-1.91,1.09c-.57,1-1.1,2-1.63,3-.15.31-.33.6-.51.9l-.23,0,.22,0h0c-3.3-.44-6.56-.82-9.86-1.2h-.12a2.23,2.23,0,0,0-2.08,2.2,2.18,2.18,0,0,0,.65,1.54,2.43,2.43,0,0,0,1.55.65l6.44.75c-1.5,1.88-3,3.75-4.49,5.62-1.79,2.26-3.52,4.55-5.29,6.84,0,0,0-.05,0-.06l-5.14,6.24c-.55.69-1.1,1.41-1.68,2.06s-1.33,1.42-2,2.14c-1.9,2.06-3.78,4.11-5.66,6.18-.68.71-1.44,1.38-2.16,2.08-1.12,1.12-2.25,2.24-3.41,3.35-1.21-.07-2.44-.07-3.66-.05-.63,0-1.26,0-1.88,0a2.2,2.2,0,1,0,0,4.39h.78l-5,4.32-3.63,3.15-.39,0c-1.27-.16-2.54-.34-3.82-.53a2.43,2.43,0,0,0-1.69.23,2.16,2.16,0,0,0-1,1.29,2.33,2.33,0,0,0,.22,1.72,2.13,2.13,0,0,0,1.31,1l.93.15c-1.19,1-2.38,2-3.58,3-2,1.67-4.08,3.3-6.16,4.92-1,.73-1.94,1.47-2.92,2.17a3.77,3.77,0,0,0-.61.58c-1.78,0-3.56,0-5.36,0-2.21,0-4.4-.31-6.62-.57a4.67,4.67,0,0,0-3.46,1.44c-.08.08-.14.17-.22.24l-.64-.06.8-.56c1-.78,2.07-1.62,3.11-2.45.86-.69,1.65-1.4,2.46-2.15s1.63-1.44,2.38-2.22l2.92-3.08c.86-.92,1.68-1.89,2.52-2.83.7-.75,1.37-1.55,2-2.3,3.92-4.51,7.86-9,11.64-13.57a2.3,2.3,0,0,0,.65-1.55,2.15,2.15,0,0,0-.65-1.55,2.31,2.31,0,0,0-1.62-.64,1.93,1.93,0,0,0-1.49.64c-3.17,3.86-6.48,7.61-9.74,11.4-1.53,1.76-3,3.5-4.58,5.22s-3.38,3.69-5.11,5.49c-.4.43-.85.8-1.27,1.18L523.85,806c-.41.39-.88.72-1.32,1.07s-1.11.91-1.68,1.36c-1.76,1.29-3.55,2.56-5.39,3.76l-1.94-.31a8.52,8.52,0,0,1-2.14,1l-1-.14.66.09.37.05v0l-.36-.07c-1.29-.16-2.58-.32-3.88-.46-1-.17-2-.37-3-.55-1.55-.28-3.11-.46-4.66-.65a62.21,62.21,0,0,1-6.45-1.38c1-.74,2-1.47,3-2.22.8-.62,1.62-1.26,2.39-1.91s1.47-1.35,2.21-2c.58-.56,1.15-1.18,1.7-1.77s1.27-1.38,1.87-2.1c1.36-1.7,2.7-3.4,3.91-5.2a2.22,2.22,0,0,0-.78-3,2.16,2.16,0,0,0-1.08-.29,2.4,2.4,0,0,0-1.93,1.09c-.54.81-1.11,1.6-1.7,2.4a59.09,59.09,0,0,1-3.85,4.51q-1.26,1.29-2.55,2.52c-.73.71-1.54,1.33-2.33,2l0,0v0l0,0h0c-1,.73-2,1.44-2.92,2.17-1.14.84-2.26,1.74-3.38,2.61-1.27-.26-2.54-.51-3.78-.82a76.48,76.48,0,0,1-7.8-2.43l-1.45-.5c-.51-.18-1-.38-1.49-.56-1.11-.57-2.24-1.12-3.36-1.66-.38-.17-.72-.37-1.09-.54a3.52,3.52,0,0,1-.45-.18c1.64-1.68,3.32-3.29,4.94-5,1-1,1.91-2,2.81-3a34.22,34.22,0,0,0,3.33-5.48,2.23,2.23,0,0,0-.79-3,2,2,0,0,0-1.08-.3,2.2,2.2,0,0,0-1.92,1.08,44.53,44.53,0,0,1-2.74,4.72c-2.48,3-5.41,5.54-8.1,8.32a2.42,2.42,0,0,0-.51,1,2.17,2.17,0,0,1-.35-.15l-.53-.19-.19-.13c-1.75-1.1-3.42-2.36-5.07-3.6-2.94-2.34-5.88-4.7-8.86-7l1,.76c-1-.82-2-1.71-3-2.54s-2.32-1.83-3.51-2.74c-1.46-1.13-2.93-2.22-4.46-3.29-1.2-.86-2.48-1.63-3.69-2.5a63.82,63.82,0,0,1-9.22-9.3L425,767.93c.13.15.22.29.33.42-2.83-3.7-5.6-7.4-8.75-10.8-1.24-1.34-2.54-2.61-3.73-4s-2.61-3.07-3.89-4.66c-.95-1.24-1.9-2.51-2.87-3.76.25.34.51.67.77,1-.86-1.14-1.68-2.26-2.54-3.38-.06-.06-.1-.13-.15-.19-.48-.64-1-1.27-1.45-1.9-1-1.45-2-2.93-3.05-4.4s-1.94-2.76-2.79-4.22a91.37,91.37,0,0,1-4.64-9.61c-.93-2.27-1.73-4.59-2.63-6.87a5.8,5.8,0,0,0-1.5-2.37c-.19-.47-.37-1-.58-1.43-.1-.25-.22-.5-.34-.76a1.6,1.6,0,0,0-.05-.21c-.27-1.07-.68-2.09-1-3.14-.37-1.27-.82-2.53-1.24-3.78-.23-.72-.43-1.46-.67-2.18s-.51-1.37-.82-2a1.46,1.46,0,0,0-.07-.19c-.41-1-.81-2.08-1.15-3.14-.21-.9-.39-1.79-.58-2.7-.44-2.19-.71-4.4-1.17-6.59-.36-1.68-.84-3.33-1.14-5-.37-2.15-.89-4.29-1.33-6.41a1,1,0,0,1,0-.25c-.46-2.25-.83-4.52-1.24-6.79v0c-.09-.54-.18-1.06-.29-1.6-.38-1.92-.68-3.86-.92-5.8,0-.68-.1-1.36-.15-2.06-.12-1.2-.13-2.4-.25-3.61,0-.56-.12-1.13-.16-1.69,0-.24,0-.49,0-.72-.05-1.52-.08-3.06-.18-4.58,0-.62-.09-1.23-.15-1.85l0,0c-.05-.48-.07-1-.13-1.41v.07c0-.23,0-.47-.06-.71a.37.37,0,0,1,0-.11c0-.41-.05-.82-.08-1.21,0-.91-.07-1.82-.07-2.74,0-2.32,0-4.64,0-7,0-3.86.06-7.69.14-11.56.06-1,.15-1.88.18-2.84,0-1.28.07-2.58.19-3.87l.15-1.62.12-1c.41-3.41.73-6.84,1.05-10.26.09-.78.15-1.58.24-2.35s.16-1.28.25-1.92a6.53,6.53,0,0,1,.1-.72c0-.1,0-.2,0-.32.39-2.65.91-5.28,1.33-7.94a.74.74,0,0,1,0-.17c.15-.73.3-1.47.47-2.21.94-4.42,1.81-8.86,2.92-13.24a105.7,105.7,0,0,1,3.72-11.2c1.41-3.79,2.52-7.71,3.69-11.59a74.05,74.05,0,0,1,2.37-7.06l-.5,1.18c1.46-3.42,2.84-6.82,4-10.32,1.06-3.11,2-6.28,3.22-9.31,1.92-4.35,4.06-8.6,6.16-12.85.91-1.87,1.69-3.78,2.54-5.68,1-2.28,2.28-4.46,3.46-6.65,2.3-4.27,4.95-8.35,7.08-12.72,1.94-4,3.58-8.14,5.78-12,2.59-4.47,5.36-8.85,8.26-13.12,1.2-1.77,2.3-3.6,3.45-5.41,1.29-2,2.63-3.95,4.07-5.88,3-3.79,6.26-7.43,8.82-11.53,1.16-1.86,2.43-3.65,3.59-5.49,1.32-2.11,2.55-4.22,4-6.22,1.76-2.18,3.66-4.25,5.52-6.37a56.07,56.07,0,0,0,5.71-7.62c1.72-2.75,3.3-5.61,5-8.37.71-1.12,1.31-2.28,2-3.38.88-1.41,1.89-2.73,2.88-4-.14.19-.3.39-.45.57,1.38-1.78,2.71-3.56,4-5.42s2.83-3.88,4.13-5.9,2.75-4.28,4.07-6.49,2.47-4.12,3.78-6.15a112,112,0,0,0,6.6-11.71c.87-1.78,1.69-3.58,2.67-5.33,1.14-2.09,2.39-4.1,3.72-6.07,1.85-2.76,3.66-5.56,5.32-8.43.85-1.46,1.5-3.05,2.23-4.58s1.49-3.19,2.2-4.8c2.57-5.89,5.45-11.63,8-17.54a0,0,0,0,0,0,0,1,1,0,0,1,.08-.18c.66-1.58,1.29-3.17,2-4.76a59.34,59.34,0,0,1,2.93-5.93c1.3-2.28,2.72-4.48,4.06-6.73a65.23,65.23,0,0,0,3.85-7.25c1-2.2,1.93-4.39,2.84-6.61-.15.38-.33.78-.49,1.17.31-.77.64-1.54,1-2.3,1.27-3,2.77-5.84,4.12-8.77.45-1,1-2,1.41-3,.23.48.46,1,.68,1.47.4,1,.8,1.9,1.27,2.82s.85,1.7,1.26,2.58.65,1.76,1,2.66.36,1.65.6,2.45"></path><path class="b" d="M470.31,506a12.68,12.68,0,0,0-2.63-2,9.55,9.55,0,0,0-4.05-1.12h0a11.83,11.83,0,0,0-6.9,2.57.48.48,0,0,1-.11.09,5.32,5.32,0,0,0-.8.12,5.11,5.11,0,0,0-2.93,2.24c-.58.82-1.14,1.64-1.75,2.43-1.29,1.64-2.52,3.32-3.66,5.05a53,53,0,0,0-3.24,6,5.53,5.53,0,0,0-.65,2.69c-.6.8-1.21,1.62-1.77,2.45-1.23,1.78-2.43,3.55-3.55,5.39a109.32,109.32,0,0,0-6,12.48c-1.89,4.5-3.29,9.19-5.08,13.76-.85,2.19-1.63,4.41-2.41,6.61-.64,1.85-1.35,3.69-1.95,5.56-.87,2.73-1.74,5.48-2.5,8.26-.68,2.58-1.46,5.16-2.09,7.77s-1.34,5.06-1.83,7.64c-.23,1.2-.55,2.38-.79,3.59-.34,1.71-.49,3.48-.7,5.21-.3,2.06-.61,4.11-.76,6.2s-.12,4.19-.26,6.29c-.15,2.55-.44,5.09-.58,7.64-.13,2.25-.18,4.54-.21,6.8a56.11,56.11,0,0,0,0,6.22c.19,2,.42,4.1.53,6.15.12,2.46.07,4.92.23,7.39s.44,4.8.56,7.23c.06,1.11.06,2.25.15,3.38.11,1.29.32,2.59.49,3.87l-.17-1.31a65.44,65.44,0,0,0,1.4,7.23c.51,2.05.86,4.14,1.33,6.2.46,1.87,1,3.7,1.4,5.57.35,1.68.69,3.33.94,5s.5,3.49.82,5.23a42.26,42.26,0,0,0,1.38,5.28,44.32,44.32,0,0,0,1.82,4.26c.6,1.36,1.25,2.72,2,4,.35.62.79,1.2,1.18,1.77s.78,1.17,1.2,1.73a16.56,16.56,0,0,0,1.88,2.3c.48.5,1,.92,1.55,1.39a38,38,0,0,0,3.35,2.86,9.71,9.71,0,0,0,2.4,1.17,12.16,12.16,0,0,0,1.31.37c2.28.93,4.83,1.51,7.1,0a11.65,11.65,0,0,0,3.1-3,6.65,6.65,0,0,0,.59-1.16c.37-.78.71-1.56,1-2.38a17.58,17.58,0,0,0,.77-4.61c.11-1.51.14-3,.18-4.51,0-1.34.3-2.68.43-4s.21-2.64.36-4a2,2,0,0,1,0,.24c.49-3.75.86-7.52,1.28-11.28.37-2.28.84-4.54,1-6.86.15-2,.2-4.1.23-6.15,0-2.41,0-4.84.05-7.25,0-2.18.41-4.38.54-6.57.27-4.73.25-9.47.27-14.21,0-2.54,0-5.08,0-7.64s-.05-4.84.07-7.25c.11-1.92.25-3.84.36-5.77.12-1.67.16-3.35.31-5,.31-3.36.71-6.7,1.1-10.06.34-2.18.75-4.34,1.12-6.52s.7-4.18,1.13-6.27c.94-4.65,1.65-9.35,2.62-14,.48-2.3,1-4.59,1.55-6.87.26-1,.55-2,.86-3s.81-2.15,1.11-3.26c.53-1.88,1-3.75,1.52-5.63.55-2.14.86-4.38,1.21-6.57s.63-4.18,1-6.27,1-4.26,1.5-6.4a48.36,48.36,0,0,1,2.2-7.11c.36-1,.54-2,.81-3a33.86,33.86,0,0,0,.85-4.49c.26-2.31.32-4.62.35-7,0-3.08.13-6.18-1.35-9a15.9,15.9,0,0,0-3.77-4.24M435.18,700.91c-.86-2.1-1.53-4.26-2.27-6.42S431.58,690.2,431,688s-1.13-4.53-1.58-6.81-.82-4.42-1.26-6.63c-.67-3.42-1.26-6.86-1.72-10.29-.3-2.24-.54-4.49-.8-6.74s-.42-4.63-.57-7-.25-4.69-.25-7,.06-4.65.11-7c.09-4.69.28-9.36.59-14,.15-2.32.41-4.64.7-6.92s.55-4.64.8-7c.06-.53.14-1.07.2-1.6a3.52,3.52,0,0,1-.09.58c.37-2.55.72-5.09,1.05-7.64.67-4.62,1.44-9.22,2.28-13.81a131.59,131.59,0,0,1,2.87-13.72c.51-1.81,1.08-3.61,1.67-5.43.55-1.64,1.16-3.26,1.79-4.9q1.81-4.77,3.79-9.51c1.08-2.51,2.18-5,3.26-7.5.66-1.59,1.27-3.19,1.87-4.8q1.57-3.11,3.25-6.15c.75-1.37,1.5-2.72,2.26-4.08.3-.43.6-.86.91-1.27,1-1.33,2.06-2.64,3.07-4,1.4-1.76,2.88-3.45,4.35-5.17a5.8,5.8,0,0,0,1.28-2.32,16,16,0,0,1,1.71-1,8.7,8.7,0,0,1,1.08-.3,1.47,1.47,0,0,1,.42,0l0,0c.08.25.13.5.19.77a29.66,29.66,0,0,1-.47,6.63c0-.21.06-.4.07-.59-.7,4.67-1.69,9.26-2.71,13.87s-2.12,9-3.26,13.43c-2.34,9.1-5.08,18.09-7,27.26-.49,2.3-1,4.58-1.38,6.87q-.63,3.69-1.18,7.36-1.08,6.84-2,13.68c-.66,4.91-1.6,9.79-2.18,14.71-.28,2.33-.51,4.65-.7,7s-.1,4.74-.1,7.1c0,9.52,0,19,0,28.55-.05,9.35-.15,18.72-.78,28.06-.11,1.43-.22,2.86-.27,4.29-.05,1-.05,1.9-.05,2.86,0,.3-.07.64-.09,1a37.34,37.34,0,0,0-.32,4.1c0,1.2-.09,2.4-.22,3.59a7.84,7.84,0,0,1-.24,1l-.12,0c-.2-.06-.41-.1-.63-.15l-.24-.16c-.59-.52-1.15-1.06-1.74-1.61s-1.35-1.18-1.95-1.86a27.55,27.55,0,0,1-1.42-2.82"></path><path class="b" d="M486.14,462.36a20.37,20.37,0,0,0-.71-2.17,10.88,10.88,0,0,0-1.3-2.51,11.93,11.93,0,0,0-1.67-1.87,5.47,5.47,0,0,0-1.47-1c0-.05,0-.08,0-.13a5,5,0,0,0-2.26-2.92,4.92,4.92,0,0,0-2.49-.67,4.78,4.78,0,0,0-1.29.18,5.28,5.28,0,0,0-2.92,2.25c-.21.26-.43.56-.64.83-1.16,1.46-2.33,2.92-3.56,4.34-.6.68-1.26,1.33-1.86,2-.78.84-1.46,1.78-2.16,2.69-.55.72-1.08,1.46-1.58,2.2s-1,1.27-1.41,2a37.4,37.4,0,0,0-2,4.36,20.12,20.12,0,0,0-1.35,3.39c-.29,1.21-.41,2.47-.65,3.71a47.46,47.46,0,0,0-.9,7.23c0,.68-.05,1.36-.08,2a7.22,7.22,0,0,0,2.35,5.4A8,8,0,0,0,460,495c.3.16.58.31.87.5a12.35,12.35,0,0,0,3.44,1.48,15.21,15.21,0,0,0,4.61.44,40,40,0,0,0,4.22-.46,12.81,12.81,0,0,0,6.94-4,22.36,22.36,0,0,0,4.13-7.36,43.83,43.83,0,0,0,1.62-6.08,53.3,53.3,0,0,0,1-10.46c0-.78.05-1.57,0-2.36a18.49,18.49,0,0,0-.77-4.26m-18.62,15.08c.57-1.19,1.16-2.38,1.82-3.55a22.68,22.68,0,0,1,1.78-3,18.54,18.54,0,0,1,2.64-2.6c.39-.31.82-.58,1.21-.87l.57-.41c.16.27.32.55.46.82a25.53,25.53,0,0,1,1,3.64c-.06,1.2-.14,2.42-.25,3.63a43.48,43.48,0,0,1-2.29,8.58,23.15,23.15,0,0,1-1.3,2.26,9.07,9.07,0,0,1-.82.82,7.71,7.71,0,0,1-.77.49l-.63.15a25.35,25.35,0,0,1-3.47.21c-.35-.08-.71-.17-1-.27l-.81-.47c0-1.07.11-2.13.22-3.18s.46-2.35.66-3.54c.05-.33.11-.68.18-1,.28-.56.56-1.13.82-1.69"></path></svg>